HIERARCHY
ROOT Hips
{
  OFFSET -0.472234 87.0474 5.97184
  CHANNELS 6 Xposition Yposition Zposition Zrotation Xrotation Yrotation
  JOINT Spine
  {
    OFFSET 0 10.1816 0.1315
    CHANNELS 6 Xposition Yposition Zposition Zrotation Xrotation Yrotation
    JOINT Spine1
    {
      OFFSET 0 10.0835 -1.0008
      CHANNELS 6 Xposition Yposition Zposition Zrotation Xrotation Yrotation
      JOINT Spine2
      {
        OFFSET 0 9.1 -1.3734
        CHANNELS 6 Xposition Yposition Zposition Zrotation Xrotation Yrotation
        JOINT Neck
        {
          OFFSET 0 16.6717 -2.5162
          CHANNELS 6 Xposition Yposition Zposition Zrotation Xrotation Yrotation
          JOINT Head
          {
            OFFSET 0 9.6179 1.685
            CHANNELS 6 Xposition Yposition Zposition Zrotation Xrotation Yrotation
            JOINT HeadTop_End
            {
              OFFSET 0 17.8152 2.585
              CHANNELS 6 Xposition Yposition Zposition Zrotation Xrotation Yrotation
              End Site
              {
                OFFSET 0 0 0
              }
            }
            JOINT LeftEye
            {
              OFFSET 3.0676 6.4095 9.2836
              CHANNELS 6 Xposition Yposition Zposition Zrotation Xrotation Yrotation
              End Site
              {
                OFFSET 0 0 0
              }
            }
            JOINT RightEye
            {
              OFFSET -3.0676 6.4095 9.2835
              CHANNELS 6 Xposition Yposition Zposition Zrotation Xrotation Yrotation
              End Site
              {
                OFFSET 0 0 0
              }
            }
          }
        }
        JOINT LeftShoulder
        {
          OFFSET 4.5704 10.946 -2.628
          CHANNELS 6 Xposition Yposition Zposition Zrotation Xrotation Yrotation
          JOINT LeftArm
          {
            OFFSET 10.5924 -0.5246 -2.2321
            CHANNELS 6 Xposition Yposition Zposition Zrotation Xrotation Yrotation
            JOINT LeftForeArm
            {
              OFFSET 27.8415 -0.0001 0
              CHANNELS 6 Xposition Yposition Zposition Zrotation Xrotation Yrotation
              JOINT LeftHand
              {
                OFFSET 28.3288 0 0
                CHANNELS 6 Xposition Yposition Zposition Zrotation Xrotation Yrotation
                JOINT LeftHandThumb1
                {
                  OFFSET 2.4661 -1.575 2.6824
                  CHANNELS 6 Xposition Yposition Zposition Zrotation Xrotation Yrotation
                  JOINT LeftHandThumb2
                  {
                    OFFSET 3.2298 -1.8647 1.8647
                    CHANNELS 6 Xposition Yposition Zposition Zrotation Xrotation Yrotation
                    JOINT LeftHandThumb3
                    {
                      OFFSET 2.6526 -1.5315 1.5315
                      CHANNELS 6 Xposition Yposition Zposition Zrotation Xrotation Yrotation
                      End Site
                      {
                        OFFSET 1.9546 -1.1285 1.1285
                      }
                    }
                  }
                }
                JOINT LeftHandIndex1
                {
                  OFFSET 9.1093 -0.5171 2.2601
                  CHANNELS 6 Xposition Yposition Zposition Zrotation Xrotation Yrotation
                  JOINT LeftHandIndex2
                  {
                    OFFSET 3.6764 0 0
                    CHANNELS 6 Xposition Yposition Zposition Zrotation Xrotation Yrotation
                    JOINT LeftHandIndex3
                    {
                      OFFSET 2.8831 0 0
                      CHANNELS 6 Xposition Yposition Zposition Zrotation Xrotation Yrotation
                      End Site
                      {
                        OFFSET 2.3927 0 0
                      }
                    }
                  }
                }
                JOINT LeftHandMiddle1
                {
                  OFFSET 9.5334 0 0
                  CHANNELS 6 Xposition Yposition Zposition Zrotation Xrotation Yrotation
                  JOINT LeftHandMiddle2
                  {
                    OFFSET 3.6982 0 0
                    CHANNELS 6 Xposition Yposition Zposition Zrotation Xrotation Yrotation
                    JOINT LeftHandMiddle3
                    {
                      OFFSET 2.9509 0 0
                      CHANNELS 6 Xposition Yposition Zposition Zrotation Xrotation Yrotation
                      End Site
                      {
                        OFFSET 2.8339 0 0
                      }
                    }
                  }
                }
                JOINT LeftHandRing1
                {
                  OFFSET 9.1045 -0.0439 -1.8651
                  CHANNELS 6 Xposition Yposition Zposition Zrotation Xrotation Yrotation
                  JOINT LeftHandRing2
                  {
                    OFFSET 3.154 0 0
                    CHANNELS 6 Xposition Yposition Zposition Zrotation Xrotation Yrotation
                    JOINT LeftHandRing3
                    {
                      OFFSET 2.9377 0 0
                      CHANNELS 6 Xposition Yposition Zposition Zrotation Xrotation Yrotation
                      End Site
                      {
                        OFFSET 2.6475 0 0
                      }
                    }
                  }
                }
                JOINT LeftHandPinky1
                {
                  OFFSET 8.0778 -0.4887 -3.8061
                  CHANNELS 6 Xposition Yposition Zposition Zrotation Xrotation Yrotation
                  JOINT LeftHandPinky2
                  {
                    OFFSET 3.6 0 0
                    CHANNELS 6 Xposition Yposition Zposition Zrotation Xrotation Yrotation
                    JOINT LeftHandPinky3
                    {
                      OFFSET 2.1142 0 0
                      CHANNELS 6 Xposition Yposition Zposition Zrotation Xrotation Yrotation
                      End Site
                      {
                        OFFSET 1.9757 0 0
                      }
                    }
                  }
                }
              }
            }
          }
        }
        JOINT RightShoulder
        {
          OFFSET -4.57 10.9462 -2.628
          CHANNELS 6 Xposition Yposition Zposition Zrotation Xrotation Yrotation
          JOINT RightArm
          {
            OFFSET -10.5928 -0.5248 -2.2321
            CHANNELS 6 Xposition Yposition Zposition Zrotation Xrotation Yrotation
            JOINT RightForeArm
            {
              OFFSET -27.8415 0 0
              CHANNELS 6 Xposition Yposition Zposition Zrotation Xrotation Yrotation
              JOINT RightHand
              {
                OFFSET -28.3288 0 0.0001
                CHANNELS 6 Xposition Yposition Zposition Zrotation Xrotation Yrotation
                JOINT RightHandPinky1
                {
                  OFFSET -8.0767 -0.4885 -3.806
                  CHANNELS 6 Xposition Yposition Zposition Zrotation Xrotation Yrotation
                  JOINT RightHandPinky2
                  {
                    OFFSET -3.6 0 0.0001
                    CHANNELS 6 Xposition Yposition Zposition Zrotation Xrotation Yrotation
                    JOINT RightHandPinky3
                    {
                      OFFSET -2.1142 0 0
                      CHANNELS 6 Xposition Yposition Zposition Zrotation Xrotation Yrotation
                      End Site
                      {
                        OFFSET -1.9757 0 0
                      }
                    }
                  }
                }
                JOINT RightHandRing1
                {
                  OFFSET -9.1036 -0.0439 -1.8651
                  CHANNELS 6 Xposition Yposition Zposition Zrotation Xrotation Yrotation
                  JOINT RightHandRing2
                  {
                    OFFSET -3.154 0 0
                    CHANNELS 6 Xposition Yposition Zposition Zrotation Xrotation Yrotation
                    JOINT RightHandRing3
                    {
                      OFFSET -2.9377 0 0
                      CHANNELS 6 Xposition Yposition Zposition Zrotation Xrotation Yrotation
                      End Site
                      {
                        OFFSET -2.6475 0 0
                      }
                    }
                  }
                }
                JOINT RightHandMiddle1
                {
                  OFFSET -9.5325 0 0
                  CHANNELS 6 Xposition Yposition Zposition Zrotation Xrotation Yrotation
                  JOINT RightHandMiddle2
                  {
                    OFFSET -3.6982 0 0
                    CHANNELS 6 Xposition Yposition Zposition Zrotation Xrotation Yrotation
                    JOINT RightHandMiddle3
                    {
                      OFFSET -2.9509 0 0
                      CHANNELS 6 Xposition Yposition Zposition Zrotation Xrotation Yrotation
                      End Site
                      {
                        OFFSET -2.8339 0 0.0001
                      }
                    }
                  }
                }
                JOINT RightHandIndex1
                {
                  OFFSET -9.1083 -0.5168 2.2601
                  CHANNELS 6 Xposition Yposition Zposition Zrotation Xrotation Yrotation
                  JOINT RightHandIndex2
                  {
                    OFFSET -3.6764 0 0
                    CHANNELS 6 Xposition Yposition Zposition Zrotation Xrotation Yrotation
                    JOINT RightHandIndex3
                    {
                      OFFSET -2.8831 0 0
                      CHANNELS 6 Xposition Yposition Zposition Zrotation Xrotation Yrotation
                      End Site
                      {
                        OFFSET -2.3927 0 0
                      }
                    }
                  }
                }
                JOINT RightHandThumb1
                {
                  OFFSET -2.4648 -1.5727 2.6826
                  CHANNELS 6 Xposition Yposition Zposition Zrotation Xrotation Yrotation
                  JOINT RightHandThumb2
                  {
                    OFFSET -3.2298 -1.8647 1.8647
                    CHANNELS 6 Xposition Yposition Zposition Zrotation Xrotation Yrotation
                    JOINT RightHandThumb3
                    {
                      OFFSET -2.6526 -1.5314 1.5314
                      CHANNELS 6 Xposition Yposition Zposition Zrotation Xrotation Yrotation
                      End Site
                      {
                        OFFSET -1.9546 -1.1285 1.1285
                      }
                    }
                  }
                }
              }
            }
          }
        }
      }
    }
  }
  JOINT LeftUpLeg
  {
    OFFSET 8.2078 -6.7517 -1.5996
    CHANNELS 6 Xposition Yposition Zposition Zrotation Xrotation Yrotation
    JOINT LeftLeg
    {
      OFFSET 0 -44.3705 0.2846
      CHANNELS 6 Xposition Yposition Zposition Zrotation Xrotation Yrotation
      JOINT LeftFoot
      {
        OFFSET 0 -44.4279 -2.9822
        CHANNELS 6 Xposition Yposition Zposition Zrotation Xrotation Yrotation
        JOINT LeftToeBase
        {
          OFFSET 0 -8.7287 10.7106
          CHANNELS 6 Xposition Yposition Zposition Zrotation Xrotation Yrotation
          End Site
          {
            OFFSET 0 -0.0007 9.2781
          }
        }
      }
    }
  }
  JOINT RightUpLeg
  {
    OFFSET -8.2078 -6.7517 -1.5996
    CHANNELS 6 Xposition Yposition Zposition Zrotation Xrotation Yrotation
    JOINT RightLeg
    {
      OFFSET 0 -44.3705 0.2862
      CHANNELS 6 Xposition Yposition Zposition Zrotation Xrotation Yrotation
      JOINT RightFoot
      {
        OFFSET 0 -44.4277 -2.9838
        CHANNELS 6 Xposition Yposition Zposition Zrotation Xrotation Yrotation
        JOINT RightToeBase
        {
          OFFSET 0 -8.7287 10.7106
          CHANNELS 6 Xposition Yposition Zposition Zrotation Xrotation Yrotation
          End Site
          {
            OFFSET 0 -0.0007 9.2781
          }
        }
      }
    }
  }
}
MOTION
Frames:	4
Frame Time:	0.0333333
6.64498 90.316 49.7453 2.48736 -3.10709 -52.9201 -7.10543e-015 10.1816 0.1315 -0.0369332 4.49905 1.25001 0 10.0835 -1.0008 -2.02073 7.235 2.94182 7.10543e-015 9.1 -1.3734 -1.99304 7.181 3.11935 -7.10543e-015 16.6717 -2.5162 -5.99691 9.55371 5.10342 0 9.6179 1.685 -10.7395 1.10645 18.6455 -3.55271e-015 17.8152 2.585 2.64834e-031 -3.18055e-015 4.77083e-015 3.0676 6.4095 9.2836 2.64834e-031 -3.18055e-015 4.77083e-015 -3.0676 6.4095 9.2835 2.64834e-031 -3.18055e-015 4.77083e-015 4.5704 10.946 -2.628 -1.45073 -1.57436 14.6368 10.5924 -0.5246 -2.2321 -41.32 -7.49953 -35.4613 27.8415 -0.0001 0 -27.7767 -17.7186 -115.546 28.3288 0 7.10543e-015 10.2879 13.1389 -9.07469 2.4661 -1.575 2.6824 -6.17636 9.43586 8.13986 3.2298 -1.8647 1.8647 2.98972 14.8955 18.5383 2.6526 -1.5315 1.5315 1.36434 23.1648 46.4465 9.1093 -0.5171 2.2601 -77.4901 -5.41089 6.74024 3.6764 0 1.42109e-014 -100.857 -8.2004 6.78077 2.8831 0 0 -77.805 -5.44795 6.7484 9.5334 0 0 -77.4742 -5.40901 6.73983 3.6982 0 -2.84217e-014 -100.873 -8.20229 6.7804 2.9509 1.42109e-014 1.42109e-014 -77.805 -5.44795 6.7484 9.1045 -0.0439 -1.8651 -77.4901 -5.41089 6.74024 3.154 0 0 -100.857 -8.2004 6.78077 2.9377 1.42109e-014 0 -77.805 -5.44795 6.7484 8.0778 -0.4887 -3.8061 -77.0292 -5.99461 9.03829 3.6 0 0 -101.208 -4.21154 7.56016 2.1142 0 0 -77.7646 -5.4432 6.74736 -4.57 10.9462 -2.628 -10.7061 -0.91572 11.254 -10.5928 -0.5248 -2.2321 39.221 -5.57507 48.4906 -27.8415 0 0 28.5924 -17.3239 118.255 -28.3288 0 0.0001 -15.844 -15.106 6.5489 -8.0767 -0.4885 -3.806 78.3617 -5.56769 -6.83019 -3.6 0 0.0001 89.7254 -6.93772 -6.97257 -2.1142 -3.55271e-015 -7.10543e-015 63.4769 -3.85939 -6.23572 -9.1036 -0.0439 -1.8651 78.3617 -5.56769 -6.8286 -3.154 0 7.10543e-015 89.7254 -6.93931 -6.97258 -2.9377 0 -1.42109e-014 63.4769 -3.85939 -6.23572 -9.5325 -3.55271e-015 -7.10543e-015 78.3617 -5.56769 -6.8286 -3.6982 0 -7.10543e-015 89.7254 -6.93931 -6.97258 -2.9509 0 1.42109e-014 63.4769 -3.85939 -6.23775 -9.1083 -0.5168 2.2601 78.3617 -5.56769 -6.8286 -3.6764 0 7.10543e-015 89.7254 -6.93931 -6.97258 -2.8831 -3.55271e-015 -7.10543e-015 63.4769 -3.85939 -6.23572 -2.4648 -1.5727 2.6826 6.65502 0.935982 -15.8205 -3.2298 -1.8647 1.8647 1.00484 20.5037 -16.724 -2.6526 -1.5314 1.5314 -4.08928 41.2989 -44.5019 8.2078 -6.7517 -1.5996 28.7065 -25.9671 20.7639 0 -44.3705 0.2846 10.4767 23.51 -13.0296 0 -44.4279 -2.9822 -22.3483 19.2426 -6.9285 -1.42109e-014 -8.7287 10.7106 -1.62645 -4.40098 -0.100416 -8.2078 -6.7517 -1.5996 -29.6303 -10.7396 -17.7197 0 -44.3705 0.2862 -9.79286 42.9381 1.43538 -8.88178e-016 -44.4277 -2.9838 28.1164 -17.5131 2.14561 -1.77636e-015 -8.7287 10.7106 -4.94491e-006 -4.83085 -1.34003e-005 
6.06277 91.4202 46.3967 2.8281 -3.65728 -50.1976 0 10.1816 0.1315 0.0825149 4.50634 1.18182 -7.10543e-015 10.0835 -1.0008 -1.7638 7.20112 2.77539 0 9.1 -1.3734 -1.73732 7.14987 2.9488 0 16.6717 -2.5162 -5.99874 9.35967 4.94084 3.55271e-015 9.6179 1.685 -10.6376 1.91423 17.6392 -3.55271e-015 17.8152 2.585 -1.59028e-015 3.18055e-015 -0 3.0676 6.4095 9.2836 -1.59028e-015 3.18055e-015 -0 -3.0676 6.4095 9.2835 -1.59028e-015 3.18055e-015 -0 4.5704 10.946 -2.628 -1.73177 -1.52182 14.2096 10.5924 -0.5246 -2.2321 -42.6814 -7.35247 -37.8153 27.8415 -0.0001 0 -27.8703 -17.6758 -115.854 28.3288 0 0 11.1629 13.2567 -9.64965 2.4661 -1.575 2.6824 -6.17636 9.43586 8.13986 3.2298 -1.8647 1.8647 2.98972 14.8955 18.5383 2.6526 -1.5315 1.5315 1.36434 23.1648 46.4465 9.1093 -0.5171 2.2601 -77.4901 -5.41089 6.74024 3.6764 0 0 -100.857 -8.2004 6.78077 2.8831 7.10543e-015 0 -77.805 -5.44795 6.7484 9.5334 -1.42109e-014 -7.10543e-015 -77.4742 -5.40901 6.73983 3.6982 0 0 -100.873 -8.20229 6.7804 2.9509 0 0 -77.805 -5.44795 6.7484 9.1045 -0.0439 -1.8651 -77.4901 -5.41089 6.74024 3.154 0 -2.84217e-014 -100.857 -8.2004 6.78077 2.9377 -7.10543e-015 7.10543e-015 -77.805 -5.44795 6.7484 8.0778 -0.4887 -3.8061 -77.0292 -5.99461 9.03829 3.6 0 1.42109e-014 -101.208 -4.21154 7.56016 2.1142 -1.42109e-014 0 -77.7646 -5.4432 6.74736 -4.57 10.9462 -2.628 -11.269 -1.00982 10.5822 -10.5928 -0.5248 -2.2321 39.151 -6.51253 47.9644 -27.8415 -1.42109e-014 1.42109e-014 28.6278 -17.3057 118.375 -28.3288 -7.10543e-015 0.0001 -15.5459 -15.2253 6.64048 -8.0767 -0.4885 -3.806 78.3617 -5.56769 -6.83019 -3.6 0 0.0001 89.7254 -6.93772 -6.97257 -2.1142 7.10543e-015 7.10543e-015 63.4769 -3.85939 -6.23572 -9.1036 -0.0439 -1.8651 78.3617 -5.56769 -6.8286 -3.154 0 -7.10543e-015 89.7254 -6.93931 -6.97258 -2.9377 0 -1.42109e-014 63.4769 -3.85939 -6.23572 -9.5325 3.55271e-015 -7.10543e-015 78.3617 -5.56769 -6.8286 -3.6982 0 7.10543e-015 89.7254 -6.93931 -6.97258 -2.9509 -7.10543e-015 0 63.4769 -3.85939 -6.23775 -9.1083 -0.5168 2.2601 78.3617 -5.56769 -6.8286 -3.6764 0 3.55271e-014 89.7254 -6.93931 -6.97258 -2.8831 -3.55271e-015 0 63.4769 -3.85939 -6.23572 -2.4648 -1.5727 2.6826 6.65502 0.935982 -15.8205 -3.2298 -1.8647 1.8647 1.00484 20.5037 -16.724 -2.6526 -1.5314 1.5314 -4.08928 41.2989 -44.5019 8.2078 -6.7517 -1.5996 25.9158 -27.5732 19.6853 0 -44.3705 0.2846 10.8318 27.102 -13.8028 0 -44.4279 -2.9822 -22.2778 14.7811 -6.73104 0 -8.7287 10.7106 7.05354e-006 -1.80073 1.19177e-005 -8.2078 -6.7517 -1.5996 -28.6336 -10.0402 -17.8578 -3.55271e-015 -44.3705 0.2862 -8.43267 43.112 -0.793792 -5.32907e-015 -44.4277 -2.9838 28.61 -17.3673 2.37985 -8.88178e-016 -8.7287 10.7106 -1.05918e-007 -4.82537 -3.63402e-005 
5.70325 92.596 43.1795 2.7235 -3.97679 -48.3174 0 10.1816 0.1315 0.0944952 4.83591 1.13434 0 10.0835 -1.0008 -1.56332 7.48923 2.62043 0 9.1 -1.3734 -1.53045 7.4467 2.77682 0 16.6717 -2.5162 -5.81077 9.11261 4.75982 0 9.6179 1.685 -10.9214 2.43547 17.0119 -1.77636e-015 17.8152 2.585 -4.77083e-015 6.36111e-015 1.59028e-015 3.0676 6.4095 9.2836 -4.77083e-015 6.36111e-015 1.59028e-015 -3.0676 6.4095 9.2835 -4.77083e-015 6.36111e-015 1.59028e-015 4.5704 10.946 -2.628 -1.09791 -1.3811 13.6697 10.5924 -0.5246 -2.2321 -44.5496 -7.47644 -40.1039 27.8415 -0.0001 0 -27.8728 -17.6746 -115.862 28.3288 0 0 12.2253 13.7185 -10.4492 2.4661 -1.575 2.6824 -6.17636 9.43586 8.13986 3.2298 -1.8647 1.8647 2.98972 14.8955 18.5383 2.6526 -1.5315 1.5315 1.36434 23.1648 46.4465 9.1093 -0.5171 2.2601 -77.4901 -5.41089 6.74024 3.6764 0 0 -100.857 -8.2004 6.78077 2.8831 0 0 -77.805 -5.44795 6.7484 9.5334 0 7.10543e-015 -77.4742 -5.40901 6.73983 3.6982 -2.84217e-014 1.42109e-014 -100.873 -8.20229 6.7804 2.9509 0 7.10543e-015 -77.805 -5.44795 6.7484 9.1045 -0.0439 -1.8651 -77.4901 -5.41089 6.74024 3.154 0 -1.42109e-014 -100.857 -8.2004 6.78077 2.9377 -1.42109e-014 7.10543e-015 -77.805 -5.44795 6.7484 8.0778 -0.4887 -3.8061 -77.0292 -5.99461 9.03829 3.6 0 -1.42109e-014 -101.208 -4.21154 7.56016 2.1142 7.10543e-015 7.10543e-015 -77.7646 -5.4432 6.74736 -4.57 10.9462 -2.628 -11.4766 -1.02403 10.0236 -10.5928 -0.5248 -2.2321 39.6779 -7.34374 47.9189 -27.8415 -1.42109e-014 0 28.6464 -17.2961 118.437 -28.3288 0 0.0001 -15.2977 -15.2309 6.89934 -8.0767 -0.4885 -3.806 78.3617 -5.56769 -6.83019 -3.6 0 0.0001 89.7254 -6.93772 -6.97257 -2.1142 3.55271e-015 -7.10543e-015 63.4769 -3.85939 -6.23572 -9.1036 -0.0439 -1.8651 78.3617 -5.56769 -6.8286 -3.154 0 7.10543e-015 89.7254 -6.93931 -6.97258 -2.9377 -3.55271e-015 7.10543e-015 63.4769 -3.85939 -6.23572 -9.5325 0 0 78.3617 -5.56769 -6.8286 -3.6982 0 -7.10543e-015 89.7254 -6.93931 -6.97258 -2.9509 0 0 63.4769 -3.85939 -6.23775 -9.1083 -0.5168 2.2601 78.3617 -5.56769 -6.8286 -3.6764 -2.84217e-014 7.10543e-015 89.7254 -6.93931 -6.97258 -2.8831 -3.55271e-015 7.10543e-015 63.4769 -3.85939 -6.23572 -2.4648 -1.5727 2.6826 6.65502 0.935982 -15.8205 -3.2298 -1.8647 1.8647 1.00484 20.5037 -16.724 -2.6526 -1.5314 1.5314 -4.08928 41.2989 -44.5019 8.2078 -6.7517 -1.5996 23.2185 -28.5152 18.2405 0 -44.3705 0.2846 11.0319 32.4589 -14.9183 1.42109e-014 -44.4279 -2.9822 -24.5452 9.94124 -6.59063 0 -8.7287 10.7106 -9.27831e-007 -0.99947 -4.93851e-007 -8.2078 -6.7517 -1.5996 -26.969 -9.86571 -17.533 -3.55271e-015 -44.3705 0.2862 -7.74184 43.0067 -2.21466 -5.32907e-015 -44.4277 -2.9838 28.2922 -16.4517 2.18031 0 -8.7287 10.7106 -0.000420996 -5.36799 -8.70944e-006 
5.59257 93.7845 40.5618 2.33047 -3.79031 -47.4843 0 10.1816 0.1315 0.183964 5.19836 1.09046 0 10.0835 -1.0008 -1.36379 7.80454 2.48 0 9.1 -1.3734 -1.32265 7.77158 2.61158 0 16.6717 -2.5162 -5.53471 8.97183 4.60235 0 9.6179 1.685 -11.4483 2.77701 16.7847 1.77636e-015 17.8152 2.585 -1.59028e-015 -6.36111e-015 3.18055e-015 3.0676 6.4095 9.2836 -1.59028e-015 -6.36111e-015 3.18055e-015 -3.0676 6.4095 9.2835 -1.59028e-015 -6.36111e-015 3.18055e-015 4.5704 10.946 -2.628 -0.162396 -1.23721 13.2198 10.5924 -0.5246 -2.2321 -46.1242 -7.66049 -41.9902 27.8415 -0.0001 0 -27.801 -17.7076 -115.626 28.3288 0 -7.10543e-015 13.0258 14.3498 -10.9896 2.4661 -1.575 2.6824 -6.17636 9.43586 8.13986 3.2298 -1.8647 1.8647 2.98972 14.8955 18.5383 2.6526 -1.5315 1.5315 1.36434 23.1648 46.4465 9.1093 -0.5171 2.2601 -77.4901 -5.41089 6.74024 3.6764 -2.84217e-014 -1.42109e-014 -100.857 -8.2004 6.78077 2.8831 -7.10543e-015 7.10543e-015 -77.805 -5.44795 6.7484 9.5334 0 2.13163e-014 -77.4742 -5.40901 6.73983 3.6982 2.84217e-014 -1.42109e-014 -100.873 -8.20229 6.7804 2.9509 -7.10543e-015 -7.10543e-015 -77.805 -5.44795 6.7484 9.1045 -0.0439 -1.8651 -77.4901 -5.41089 6.74024 3.154 0 0 -100.857 -8.2004 6.78077 2.9377 0 7.10543e-015 -77.805 -5.44795 6.7484 8.0778 -0.4887 -3.8061 -77.0292 -5.99461 9.03829 3.6 2.84217e-014 1.42109e-014 -101.208 -4.21154 7.56016 2.1142 7.10543e-015 -1.42109e-014 -77.7646 -5.4432 6.74736 -4.57 10.9462 -2.628 -11.2855 -0.974072 9.90087 -10.5928 -0.5248 -2.2321 40.503 -7.5964 47.9443 -27.8415 1.42109e-014 0 28.7018 -17.2673 118.624 -28.3288 7.10543e-015 0.0001 -15.2936 -15.0891 7.10789 -8.0767 -0.4885 -3.806 78.3617 -5.56769 -6.83019 -3.6 0 0.0001 89.7254 -6.93772 -6.97257 -2.1142 7.10543e-015 -1.42109e-014 63.4769 -3.85939 -6.23572 -9.1036 -0.0439 -1.8651 78.3617 -5.56769 -6.8286 -3.154 2.84217e-014 -1.42109e-014 89.7254 -6.93931 -6.97258 -2.9377 7.10543e-015 7.10543e-015 63.4769 -3.85939 -6.23572 -9.5325 3.55271e-015 -7.10543e-015 78.3617 -5.56769 -6.8286 -3.6982 0 0 89.7254 -6.93931 -6.97258 -2.9509 0 -7.10543e-015 63.4769 -3.85939 -6.23775 -9.1083 -0.5168 2.2601 78.3617 -5.56769 -6.8286 -3.6764 0 -7.10543e-015 89.7254 -6.93931 -6.97258 -2.8831 3.55271e-015 7.10543e-015 63.4769 -3.85939 -6.23572 -2.4648 -1.5727 2.6826 6.65502 0.935982 -15.8205 -3.2298 -1.8647 1.8647 1.00484 20.5037 -16.724 -2.6526 -1.5314 1.5314 -4.08928 41.2989 -44.5019 8.2078 -6.7517 -1.5996 21.2202 -29.3191 17.0725 0 -44.3705 0.2846 10.6148 39.5436 -15.9828 -1.42109e-014 -44.4279 -2.9822 -26.8915 5.16976 -6.52713 0 -8.7287 10.7106 2.20275e-006 -1.45984 -1.67366e-005 -8.2078 -6.7517 -1.5996 -24.7972 -10.2047 -16.828 0 -44.3705 0.2862 -7.36609 42.4134 -3.48177 -4.44089e-015 -44.4277 -2.9838 26.6364 -15.1442 1.57943 0 -8.7287 10.7106 -0.00744852 -6.39275 -0.000694284 
